PathFileType	4	(X/Y/Z) flx_2kg_3.trc																										
DataRate	CameraRate	NumFrames	NumMarkers	Units	OrigDataRate	OrigDataStartFrame	OrigNumFrames																					
100	100	58	9	mm	100	97	774																					
Frame#	Time	gu			centelbow			EpL			centpxt8			centijc7			ij			ts			aa			ai		
		X1	Y1	Z1	X2	Y2	Z2	X3	Y3	Z3	X4	Y4	Z4	X5	Y5	Z5	X6	Y6	Z6	X7	Y7	Z7	X8	Y8	Z8	X9	Y9	Z9  
96	0.96	-75.554	-18.236	166.184	-131.499	-257.331	192.411	-114.047	-254.335	219.353	-46.816	-153.158	-8.669	-46.816	31.938	-8.669	0	0	0	-135.086	26.486	54.198	-105.13	19.149	169.41	-154.823	-85.247	57.609
97	0.97	-75.445	-18.029	166.236	-131.834	-257.007	192.579	-114.41	-254.02	219.54	-46.816	-153.158	-8.669	-46.816	31.938	-8.669	0	0	0	-135.108	26.298	54.305	-105.087	18.976	169.5	-155.093	-85.389	57.81
98	0.98	-75.267	-17.627	166.307	-132.035	-256.497	192.818	-114.605	-253.519	219.776	-46.816	-153.158	-8.669	-46.816	31.938	-8.669	0	0	0	-135.196	26.291	54.478	-105.169	19.019	169.674	-155.341	-85.364	58.077
99	0.99	-75.079	-17.44	166.56	-132.188	-256.208	193.255	-114.723	-253.244	220.192	-46.816	-153.158	-8.669	-46.816	31.938	-8.669	0	0	0	-135.303	26.532	54.619	-105.279	19.335	169.822	-155.521	-85.106	58.309
100	1	-74.896	-17.92	167.157	-132.393	-256.579	193.993	-114.88	-253.641	220.901	-46.816	-153.158	-8.669	-46.816	31.938	-8.669	0	0	0	-135.453	26.797	54.722	-105.392	19.665	169.919	-155.725	-84.829	58.498
101	1.01	-74.784	-18.743	167.929	-132.595	-257.321	194.815	-115.028	-254.415	221.693	-46.816	-153.158	-8.669	-46.816	31.938	-8.669	0	0	0	-135.68	26.821	54.762	-105.527	19.72	169.936	-156.04	-84.787	58.608
102	1.02	-74.761	-19.035	168.26	-132.522	-257.623	195.162	-114.885	-254.734	221.995	-46.816	-153.158	-8.669	-46.816	31.938	-8.669	0	0	0	-135.874	26.686	54.637	-105.583	19.599	169.776	-156.328	-84.902	58.549
103	1.03	-74.649	-18.577	167.807	-131.95	-257.268	194.779	-114.212	-254.37	221.545	-46.816	-153.158	-8.669	-46.816	31.938	-8.669	0	0	0	-135.868	26.598	54.468	-105.43	19.54	169.57	-156.374	-84.978	58.449
104	1.04	-74.33	-18.016	167.106	-131.033	-256.838	194.182	-113.182	-253.922	220.87	-46.816	-153.158	-8.669	-46.816	31.938	-8.669	0	0	0	-135.685	26.567	54.539	-105.134	19.544	169.614	-156.208	-85.004	58.58
105	1.05	-73.991	-17.913	166.898	-130.183	-256.845	194.071	-112.232	-253.912	220.69	-46.816	-153.158	-8.669	-46.816	31.938	-8.669	0	0	0	-135.57	26.569	54.841	-104.931	19.556	169.892	-156.101	-85	58.91
106	1.06	-73.881	-18.268	167.135	-129.618	-257.287	194.473	-111.579	-254.331	221.03	-46.816	-153.158	-8.669	-46.816	31.938	-8.669	0	0	0	-135.716	26.581	55.093	-104.966	19.545	170.114	-156.265	-84.984	59.167
107	1.07	-73.959	-18.781	167.268	-129.179	-257.89	194.875	-111.05	-254.893	221.367	-46.816	-153.158	-8.669	-46.816	31.938	-8.669	0	0	0	-136.036	26.468	55.15	-105.142	19.399	170.13	-156.63	-85.088	59.231
108	1.08	-74.043	-19.232	167.158	-128.652	-258.448	195.05	-110.441	-255.401	221.479	-46.816	-153.158	-8.669	-46.816	31.938	-8.669	0	0	0	-136.367	26.171	55.097	-105.327	19.081	170.037	-157.023	-85.373	59.203
109	1.09	-74.089	-19.62	167.098	-128.05	-258.953	195.242	-109.781	-255.85	221.625	-46.816	-153.158	-8.669	-46.816	31.938	-8.669	0	0	0	-136.661	25.856	55.087	-105.505	18.77	169.995	-157.362	-85.678	59.231
110	1.1	-74.191	-19.946	167.202	-127.481	-259.397	195.621	-109.178	-256.225	221.972	-46.816	-153.158	-8.669	-46.816	31.938	-8.669	0	0	0	-136.877	25.727	55.153	-105.638	18.665	170.04	-157.584	-85.805	59.339
111	1.11	-74.359	-20.139	167.265	-126.899	-259.717	196.013	-108.571	-256.461	222.337	-46.816	-153.158	-8.669	-46.816	31.938	-8.669	0	0	0	-136.952	25.788	55.199	-105.65	18.76	170.071	-157.636	-85.746	59.423
112	1.12	-74.379	-20.259	167.125	-126.047	-259.98	196.25	-107.694	-256.628	222.544	-46.816	-153.158	-8.669	-46.816	31.938	-8.669	0	0	0	-136.866	25.866	55.177	-105.52	18.863	170.038	-157.525	-85.672	59.426
113	1.13	-74.108	-20.431	166.823	-124.759	-260.316	196.387	-106.38	-256.85	222.647	-46.816	-153.158	-8.669	-46.816	31.938	-8.669	0	0	0	-136.657	25.849	55.14	-105.295	18.862	169.998	-157.305	-85.69	59.405
114	1.14	-73.751	-20.608	166.474	-123.218	-260.677	196.542	-104.808	-257.079	222.763	-46.816	-153.158	-8.669	-46.816	31.938	-8.669	0	0	0	-136.5	25.792	55.132	-105.14	18.822	169.992	-157.149	-85.747	59.413
115	1.15	-73.591	-20.681	166.216	-121.692	-260.961	196.814	-103.253	-257.214	222.993	-46.816	-153.158	-8.669	-46.816	31.938	-8.669	0	0	0	-136.576	25.737	55.16	-105.223	18.79	170.023	-157.221	-85.802	59.461
116	1.16	-73.737	-20.746	166.126	-120.357	-261.251	197.248	-101.897	-257.346	223.391	-46.816	-153.158	-8.669	-46.816	31.938	-8.669	0	0	0	-136.794	25.637	55.251	-105.46	18.707	170.121	-157.428	-85.904	59.562
117	1.17	-74.164	-21.029	166.125	-119.316	-261.744	197.776	-100.847	-257.679	223.886	-46.816	-153.158	-8.669	-46.816	31.938	-8.669	0	0	0	-136.899	25.516	55.416	-105.58	18.591	170.29	-157.511	-86.028	59.722
118	1.18	-74.63	-21.571	166.123	-118.397	-262.473	198.293	-99.926	-258.251	224.379	-46.816	-153.158	-8.669	-46.816	31.938	-8.669	0	0	0	-136.794	25.485	55.573	-105.46	18.569	170.443	-157.364	-86.068	59.88
119	1.19	-74.85	-22.083	166.048	-117.203	-263.173	198.704	-98.744	-258.794	224.771	-46.816	-153.158	-8.669	-46.816	31.938	-8.669	0	0	0	-136.602	25.538	55.634	-105.216	18.639	170.491	-157.107	-86.027	59.948
120	1.2	-74.825	-22.217	165.852	-115.564	-263.522	198.967	-97.126	-258.973	225.02	-46.816	-153.158	-8.669	-46.816	31.938	-8.669	0	0	0	-136.424	25.552	55.646	-104.973	18.66	170.485	-156.86	-86.024	59.959
121	1.21	-74.702	-21.94	165.646	-113.6	-263.483	199.232	-95.187	-258.746	225.269	-46.816	-153.158	-8.669	-46.816	31.938	-8.669	0	0	0	-136.177	25.445	55.761	-104.668	18.54	170.584	-156.561	-86.142	60.058
122	1.22	-74.592	-21.538	165.5	-111.514	-263.317	199.617	-93.121	-258.376	225.631	-46.816	-153.158	-8.669	-46.816	31.938	-8.669	0	0	0	-135.782	25.227	55.988	-104.21	18.306	170.793	-156.124	-86.368	60.27
123	1.23	-74.556	-21.393	165.339	-109.483	-263.385	200.045	-91.109	-258.235	226.031	-46.816	-153.158	-8.669	-46.816	31.938	-8.669	0	0	0	-135.416	25.047	56.103	-103.755	18.126	170.884	-155.703	-86.558	60.385
124	1.24	-74.528	-21.678	165.235	-107.545	-263.852	200.535	-89.2	-258.496	226.5	-46.816	-153.158	-8.669	-46.816	31.938	-8.669	0	0	0	-135.385	25.084	55.935	-103.633	18.175	170.691	-155.593	-86.535	60.223
125	1.25	-74.329	-22.163	165.399	-105.522	-264.497	201.251	-87.237	-258.94	227.216	-46.816	-153.158	-8.669	-46.816	31.938	-8.669	0	0	0	-135.727	25.251	55.602	-103.942	18.363	170.35	-155.879	-86.378	59.9
126	1.26	-73.89	-22.453	165.756	-103.2	-264.941	202.153	-84.998	-259.175	228.131	-46.816	-153.158	-8.669	-46.816	31.938	-8.669	0	0	0	-136.191	25.304	55.354	-104.443	18.45	170.114	-156.358	-86.321	59.682
127	1.27	-73.408	-22.282	165.927	-100.571	-264.929	202.927	-82.449	-258.932	228.909	-46.816	-153.158	-8.669	-46.816	31.938	-8.669	0	0	0	-136.599	25.256	55.182	-104.899	18.447	169.958	-156.809	-86.36	59.558
128	1.28	-73.126	-21.719	165.854	-97.863	-264.525	203.501	-79.807	-258.277	229.469	-46.816	-153.158	-8.669	-46.816	31.938	-8.669	0	0	0	-136.909	25.225	54.869	-105.203	18.465	169.647	-157.117	-86.389	59.294
129	1.29	-73.044	-21.357	166.001	-95.364	-264.294	204.31	-77.361	-257.798	230.255	-46.816	-153.158	-8.669	-46.816	31.938	-8.669	0	0	0	-137.03	25.026	54.506	-105.271	18.331	169.273	-157.202	-86.592	58.993
130	1.3	-72.992	-21.774	166.568	-93.16	-264.788	205.576	-75.192	-258.062	231.487	-46.816	-153.158	-8.669	-46.816	31.938	-8.669	0	0	0	-136.94	24.553	54.369	-105.117	17.939	169.122	-157.092	-87.065	58.941
131	1.31	-72.869	-22.628	167.036	-90.977	-265.695	206.717	-73.013	-258.756	232.573	-46.816	-153.158	-8.669	-46.816	31.938	-8.669	0	0	0	-136.852	24.199	54.397	-104.949	17.655	169.132	-156.981	-87.42	59.046
132	1.32	-72.674	-23.028	166.884	-88.436	-266.172	207.094	-70.452	-259.018	232.878	-46.816	-153.158	-8.669	-46.816	31.938	-8.669	0	0	0	-136.896	24.323	54.4	-104.883	17.816	169.107	-156.97	-87.304	59.09
133	1.33	-72.445	-22.704	166.226	-85.463	-265.935	206.888	-67.459	-258.548	232.592	-46.816	-153.158	-8.669	-46.816	31.938	-8.669	0	0	0	-136.909	24.738	54.42	-104.76	18.262	169.091	-156.915	-86.9	59.146
134	1.34	-72.211	-22.135	165.606	-82.282	-265.41	206.844	-64.276	-257.758	232.469	-46.816	-153.158	-8.669	-46.816	31.938	-8.669	0	0	0	-136.752	24.999	54.557	-104.454	18.586	169.189	-156.727	-86.642	59.362
135	1.35	-71.925	-21.777	165.473	-79.065	-265.03	207.439	-61.072	-257.097	232.988	-46.816	-153.158	-8.669	-46.816	31.938	-8.669	0	0	0	-136.506	24.876	54.81	-104.055	18.552	169.404	-156.501	-86.755	59.736
136	1.36	-71.513	-21.629	165.762	-75.76	-264.829	208.425	-57.781	-256.619	233.897	-46.816	-153.158	-8.669	-46.816	31.938	-8.669	0	0	0	-136.321	24.571	55.095	-103.708	18.347	169.649	-156.328	-87.053	60.153
137	1.37	-71.093	-21.419	165.975	-72.355	-264.557	209.182	-54.375	-256.083	234.566	-46.816	-153.158	-8.669	-46.816	31.938	-8.669	0	0	0	-136.301	24.433	55.306	-103.5	18.343	169.813	-156.239	-87.196	60.509
138	1.38	-70.834	-21.054	165.811	-68.96	-264.109	209.458	-50.974	-255.371	234.748	-46.816	-153.158	-8.669	-46.816	31.938	-8.669	0	0	0	-136.425	24.415	55.437	-103.424	18.518	169.896	-156.227	-87.23	60.825
139	1.39	-70.633	-20.853	165.437	-65.603	-263.779	209.55	-47.625	-254.771	234.75	-46.816	-153.158	-8.669	-46.816	31.938	-8.669	0	0	0	-136.54	24.192	55.553	-103.343	18.534	169.968	-156.199	-87.467	61.169
140	1.4	-70.303	-21.042	165.044	-62.191	-263.782	209.72	-44.247	-254.496	234.844	-46.816	-153.158	-8.669	-46.816	31.938	-8.669	0	0	0	-136.583	23.778	55.595	-103.152	18.383	169.954	-156.08	-87.896	61.461
141	1.41	-69.836	-21.266	164.572	-58.582	-263.761	209.895	-40.693	-254.182	234.948	-46.816	-153.158	-8.669	-46.816	31.938	-8.669	0	0	0	-136.693	23.521	55.439	-102.918	18.406	169.71	-155.947	-88.18	61.569
142	1.42	-69.307	-21.108	164.093	-54.696	-263.303	210.052	-36.873	-253.416	235.033	-46.816	-153.158	-8.669	-46.816	31.938	-8.669	0	0	0	-136.993	23.533	55.138	-102.756	18.715	169.285	-155.918	-88.21	61.544
143	1.43	-68.85	-20.582	163.802	-50.708	-262.43	210.332	-32.949	-252.23	235.231	-46.816	-153.158	-8.669	-46.816	31.938	-8.669	0	0	0	-137.409	23.585	54.909	-102.664	19.059	168.914	-155.962	-88.205	61.578
144	1.44	-68.626	-19.851	163.628	-46.894	-261.29	210.735	-29.184	-250.773	235.537	-46.816	-153.158	-8.669	-46.816	31.938	-8.669	0	0	0	-137.803	23.548	54.866	-102.586	19.316	168.738	-155.969	-88.29	61.787
145	1.45	-68.534	-19.039	163.497	-43.261	-259.996	211.301	-25.588	-249.152	235.989	-46.816	-153.158	-8.669	-46.816	31.938	-8.669	0	0	0	-138.162	23.508	54.904	-102.529	19.627	168.658	-155.914	-88.378	62.111
146	1.46	-68.286	-18.29	163.558	-39.576	-258.704	212.152	-21.952	-247.53	236.728	-46.816	-153.158	-8.669	-46.816	31.938	-8.669	0	0	0	-138.49	23.48	54.854	-102.463	20.034	168.498	-155.813	-88.449	62.421
147	1.47	-67.816	-17.724	163.686	-35.698	-257.552	213.037	-18.161	-246.053	237.524	-46.816	-153.158	-8.669	-46.816	31.938	-8.669	0	0	0	-138.681	23.395	54.688	-102.252	20.441	168.217	-155.587	-88.57	62.675
148	1.48	-67.338	-17.446	163.494	-31.712	-256.637	213.519	-14.306	-244.814	237.946	-46.816	-153.158	-8.669	-46.816	31.938	-8.669	0	0	0	-138.665	23.297	54.559	-101.837	20.861	167.972	-155.158	-88.696	62.99
149	1.49	-67.038	-17.412	162.894	-27.768	-255.906	213.515	-10.534	-243.757	237.904	-46.816	-153.158	-8.669	-46.816	31.938	-8.669	0	0	0	-138.583	23.284	54.634	-101.395	21.359	167.939	-154.641	-88.74	63.488
150	1.5	-66.837	-17.235	162.065	-23.841	-254.98	213.181	-6.803	-242.512	237.547	-46.816	-153.158	-8.669	-46.816	31.938	-8.669	0	0	0	-138.678	23.302	54.806	-101.159	21.859	168.01	-154.293	-88.754	64.045
151	1.51	-66.504	-16.595	161.245	-19.785	-253.543	212.798	-2.952	-240.765	237.145	-46.816	-153.158	-8.669	-46.816	31.938	-8.669	0	0	0	-138.983	23.208	54.802	-101.113	22.234	167.894	-154.172	-88.874	64.42
152	1.52	-65.931	-15.781	160.792	-15.598	-251.874	212.861	1.032	-238.787	237.185	-46.816	-153.158	-8.669	-46.816	31.938	-8.669	0	0	0	-139.285	22.993	54.557	-101.032	22.514	167.522	-154.052	-89.11	64.584
153	1.53	-65.255	-15.269	160.944	-11.438	-250.437	213.707	4.99	-237.035	237.996	-46.816	-153.158	-8.669	-46.816	31.938	-8.669	0	0	0	-139.48	22.802	54.24	-100.847	22.856	167.078	-153.779	-89.322	64.699
